<svg version="1" xmlns="http://www.w3.org/2000/svg" width="689.333" height="689.333" viewBox="0 0 517.000000 517.000000"><path d="M88.7 1.4c-5.2 1.9-10.3 6.1-13.4 10.9C72.3 17 68 28.1 68 31c0 1.6-.7 2-3.1 2-4.2 0-9.4 2.6-12.5 6.3-2.2 2.6-2.5 3.8-2 7.4 1 7.4 7.9 16.6 18 23.8 14.4 10.2 24 10.5 28.7.8 2.4-5 4.3-6.3 9.3-6.3 4.6 0 7.9 1.6 9.1 4.3 2.8 6.3 16.3 7.2 26 1.8L147 68v2.5c0 1.4 1.4 3.8 3.4 5.9 3.6 3.5 6.7 4.5 16 4.8 6.6.2 9 2.5 8.2 7.6-.8 4.1-5.5 9.2-8.6 9.2-1 0-2.1.4-2.4.8-.7 1.2-7.4 1.7-20.6 1.7-14.5 0-20.9-.8-38.8-4.5-27.3-5.6-39.4-5.8-50.6-.7-10.8 5-15.8 12.8-17 26.7-.6 7.5-1 8.1-6.2 11.3-6 3.6-8.3 8.8-8.4 18.2 0 10.4 4.1 14.6 13.7 14.1l4.2-.2-.1 6c0 3.4.2 7.9.6 10.2.9 4.9 5.5 10.9 9.3 11.9 1.4.3 4 1.7 5.6 3.1 3.1 2.6 10.2 3.3 15.1 1.4 2-.7 3.4-.4 6.8 1.4 7.1 3.9 13 4.7 28.3 4.1 7.7-.3 17-.9 20.8-1.3 8.7-1 12.5-.7 14.6 1.2 1 .9 3.2 1.9 5 2.2l3.3.7-.8 13.1c-1.7 31 .8 53.1 8.7 76.9 9.2 27.6 23.6 50.4 46.5 73.6l11.3 11.3-4.4 11.2c-9.7 24.9-30.9 79.5-33 85.2-2.2 5.6-2.2 6.2-.8 9.2 1.7 3.5 5.9 5 9.3 3.2 1.3-.7 4.3-5.7 7.5-12.3 2.9-6.2 10.5-22 16.9-35.2 6.4-13.2 14.3-29.3 17.4-35.8l5.7-11.7 5 3.4c6.9 4.6 24.4 13 33.5 16 20.3 6.7 36.3 9.3 54.9 9.1l10.1-.2.1 3.6c.1 5.5.6 18.2 1.3 33.6.3 7.7.9 21.9 1.2 31.5.3 9.6.8 18.3 1 19.5.5 2.7 4.1 5.5 7 5.5 2.2 0 6.3-3 6.5-4.8.2-2.2.9-35.5 1.3-60.9.2-16.1.7-29.7 1.1-30.2.3-.6 1.5-1.1 2.5-1.1s7.2-1.6 13.7-3.6c12.9-3.8 32.3-12.8 41.8-19.3 3.2-2.2 6-3.9 6.1-3.8.1.2 12.1 27.4 28.4 64.7 6.1 14 12.2 27.9 13.6 30.8 1.3 2.9 2.4 5.6 2.4 6.1s.9 2 2.1 3.5c3.5 4.5 10.6 3.2 12.4-2.3.3-1-2.5-10.6-6.6-22.2-3.9-11.2-7.6-22.2-8.3-24.4-.7-2.2-2.9-8.5-4.9-14-10.1-28.4-19.8-56.8-19.5-57.5.2-.5 3.7-4.4 7.8-8.7 12.8-13.2 17-18.4 25.6-31.4 20-30.3 30-64.7 29.7-102.9-.1-21.2-1.1-31.6-3.4-36.7-2.7-6-12.5-15.6-20.7-20.3-3.4-1.9-6.2-3.7-6.2-4 0-.3 6.6-2.1 14.8-4 12.6-2.9 15.1-3.8 17.5-6.4 2.5-2.6 2.7-3.4 2.2-7-1.4-8.5-11.3-22.3-27.1-37.8C455 93.9 426 77 391.5 66.9c-6-1.7-11.2-3.3-11.4-3.5-.2-.2-.5-3.1-.7-6.6-.2-3.5-.6-8.4-.9-11-.4-4.5-.3-4.7 2.3-5 1.6-.2 3.2-1.3 4.2-3.1 1.3-2.4 1.3-3 0-5.5-1.1-1.9-2.5-2.8-4.8-3-1.8-.2-3.2-.9-3.2-1.6 0-2.2-3.5-4.6-6.8-4.6-3 0-7.2 3.1-7.2 5.3 0 .5-.8.6-1.7.2-4.9-1.9-24.9-3.4-40.3-3-16.4.5-20.8.9-28.5 2.5-2.6.6-4.1.6-4.4-.1-.7-2.3-4.7-4.9-7.3-4.9-2.7 0-6.8 3-6.8 5 0 .5-1.1 1-2.5 1-2.9 0-6.5 3.2-6.5 5.8 0 2.9 2.9 6.2 5.6 6.2h2.4l-.6 8.2c-.4 4.6-.8 9-1 9.8-.1.8-.3 2.2-.3 3.1-.1 1.1-2.2 2.1-6.8 3.4-11.7 3.1-27.9 9.2-39.2 14.7l-11 5.4 3.5-6.7c6.2-12 5.1-16.5-5.8-23.6-5.8-3.7-6.8-4.8-6.8-7.2 0-6-4.9-15.8-9.7-19.5-3.7-2.7-9.9-3.3-12.3-1.1-1.1 1-2 2.5-2 3.4-.1.9-.8.3-1.7-1.4-3.7-7-9.1-10.8-14.7-10-5.2.6-7.1 2-11.5 7.9-7.4 10-11.1 11.5-17.6 7-4.8-3.2-6.5-5.3-11.1-13.6-4.3-7.8-11-15-16.6-17.9C102.7.3 93.7-.4 88.7 1.4zM302 43.7c13.6 1.6 43.9.9 56.8-1.4l3.3-.6-.5 6.4c-.2 3.5-.5 7.6-.5 9.2L361 60l-6.2-.6c-3.5-.3-7.4-.7-8.8-1-2.9-.5-35-.5-39.5 0-1.6.2-6 .6-9.7 1l-6.8.7-.1-3.3c0-1.8-.3-5.9-.6-9.2l-.5-5.9 3.3.6c1.9.4 6.3 1 9.9 1.4zm-176 77.8c2.5.3 5.2.8 6 1 .8.3 3.1.7 5 .9 1.9.3 6.4.9 10 1.5 3.6.6 8.2 1.1 10.3 1.3 4.6.3 5.2.9 2.9 3.4-8.5 9.1-17.5 24.5-16.8 28.5.6 3.8 2 5.9 4.8 7.7l3.1 2-6.9.8c-18.3 1.9-38.2-7.4-48.1-22.6-3.7-5.6-4.3-7.3-5-13.1-.5-5.1 1.2-9 5.1-11.1 4.3-2.4 14.3-2.5 29.6-.3zM38.8 23.3c-2.5 2-2.9 3.2-3.4 9.8-.6 6.4-.4 7.8 1.1 9.2 1.5 1.6 2 1.6 3.9.4 4.6-2.9 8.3-15 6.2-20-1.1-2.3-4.5-2.1-7.8.6z"/><path d="M24.9 102.6c-6.1 1.8-14.1 7.2-15.7 10.6-2.6 5.5 2.6 10.5 9.2 8.7 5-1.4 15.3-12.7 16-17.7.6-3.4-2.3-3.9-9.5-1.6z"/></svg>