<svg xmlns="http://www.w3.org/2000/svg" viewBox="0 0 1815.33 532.89"><defs><style>.cls-1{fill:#353535;}.cls-2{fill:#b51629;}.cls-3{fill:#161616;}.cls-4{fill:#efefef;}.cls-5{fill:#c4c4c4;}.cls-6{fill:#8a141d;}.cls-7{fill:#575756;}</style></defs><title>Ativo 4</title><g id="Camada_2" data-name="Camada 2"><g id="Camada_2-2" data-name="Camada 2"><ellipse class="cls-1" cx="327.12" cy="217.05" rx="167.71" ry="53.62"/><path class="cls-2" d="M444.17,389.33C484.44,352,510.07,305.8,510.07,243c0-7.62-1.07-25.81-1.07-27.46,0-35.84-81.43-64.88-181.88-64.88s-181.87,29-181.87,64.88c0,1.65-1.69,19.84-1.69,27.46,0,64.67,27.14,112.29,69.45,149.59L173,495.84a7.22,7.22,0,0,0,3.69,9.38h0a7.21,7.21,0,0,0,9.47-3.44l45.81-94.6c27.68,18.65,60.16,29.39,94.9,29.39,3.95,0,7.88-.16,11.77-.43l3.45,89.8a7.22,7.22,0,0,0,14.44-.16L358,433.63a171.69,171.69,0,0,0,66.7-28.49l47,107.33a7.22,7.22,0,0,0,9.34,3.79h0a7.22,7.22,0,0,0,4.05-9.23ZM321.48,292.58c-61.05,0-114.47-10.43-143.8-26C225.54,281.82,287.4,291,355,291q3.61,0,7.22,0C349.16,292,335.52,292.58,321.48,292.58Zm5.64-21.92c-92.62,0-167.71-24-167.71-53.61s75.09-53.62,167.71-53.62,167.71,24,167.71,53.62S419.75,270.66,327.12,270.66Z"/><path class="cls-3" d="M321.48,292.58c14,0,27.68-.56,40.71-1.6q-3.6,0-7.22,0c-67.57,0-129.43-9.2-177.29-24.46C207,282.15,260.43,292.58,321.48,292.58Z"/><path class="cls-3" d="M386,166.83l49.66,91q8.3-2.26,15.61-4.85l-45.44-83.27C399.49,168.62,392.86,167.65,386,166.83Z"/><path class="cls-3" d="M440,177.46,475.27,242A57,57,0,0,0,488,232l-25.31-46.38A185.34,185.34,0,0,0,440,177.46Z"/><path class="cls-3" d="M336,163.43l56.22,103q8.67-1.17,16.81-2.65L354.6,164.1Q345.44,163.61,336,163.43Z"/><path class="cls-3" d="M245.15,170l54.62,100.1q9.15.46,18.59.6L262,167.38Q253.31,168.54,245.15,170Z"/><path class="cls-3" d="M167.6,200.85l26.57,48.68a196.8,196.8,0,0,0,22.46,7.71l-36-66.06A62.24,62.24,0,0,0,167.6,200.85Z"/><path class="cls-3" d="M202.71,180.53l45.93,84.16q9.56,1.59,19.78,2.78l-50-91.68C212.85,177.26,207.61,178.85,202.71,180.53Z"/><path class="cls-3" d="M290.4,164.56l57.69,105.71q9-.37,17.69-1L308.16,163.65Q299.13,164,290.4,164.56Z"/><path class="cls-2" d="M504.92,143.33c-39-51.07-103-83.66-174.66-83.66l-3.44,0-3.45,0c-71.67,0-135.64,32.59-174.66,83.66-21.35,27.95-1.08,28.88,6.8,30.87,49.35,12.44,106.6,19.56,167.67,19.56l3.64,0,3.63,0c61.07,0,118.32-7.12,167.67-19.56C506,172.21,526.27,171.28,504.92,143.33Z"/><path class="cls-4" d="M254,229.76c-16.68-6.65,0-23,7.1-39.06a.36.36,0,0,0,0-.09,652.78,652.78,0,0,1-106.31-17.09c-1.55-.4-3.59-.75-5.69-1.27-38.47,10.17-67-22.87-63.74-39.66,3.83-19.48,46.28-2.43,77.1-2s42.07-29.67,54.1-50.91-15-22.9-13.94-28.44-5-22.2-15.33-24.22-9.71,6.52-9.71,6.52-5.57-16-17.89-13.35-7.43,9.22-18.43,16.61c-7.4,5-17.44-5.7-21.26-14.54,0,0-14.69-32.34-41.6-19.07-4,3-7.38,6-9.31,9.13-7.74,12.72-7.78,22.45-7.78,22.45S56.21,30.4,45.72,40s11.15,32.91,28,39.41S92.32,69.71,93.4,69c7.3-4.9,16.29,0,16.29,0s0,7.5,12.65,8.1A27.67,27.67,0,0,0,142.86,69s-1.92,7.87,7.25,12.67,24-3,21.16,11.46-42.24,11.93-63,7.86-47.91-12.59-66.68,0-7.67,32.4-16.89,35.46-12.35,14.24-10.14,25.91,18.12,7.87,18.12,7.87-2,16.08,3,23.63,10.62,6,10.62,6c3.43,10.23,21,3.1,21,3.1,15.19,15.63,65.09.42,68.79,5.93s16.13,5.13,23.75-9.39,16.53-4,16.53-4,12.44,31.09,38.75,8.73,16.24,6,14.64,14.11-3.3,29.71,15.92,33.48,43.35-29.14,43.35-29.14S270.67,236.4,254,229.76Z"/><path class="cls-5" d="M42.16,121.72s-2.63-6,6.76-12.32c4.58-3.08,42.9-2.42,33.83-3.47C82.75,105.93,47.88,114.85,42.16,121.72Z"/><path class="cls-4" d="M.22,121.06a7.1,7.1,0,0,0,2.36,3.27,9.16,9.16,0,0,0,8.09,1.53c4.4-1.15,22.68-19.75,14.46-21.37C18.58,103.21-2.38,112.62.22,121.06Z"/><path class="cls-4" d="M29.06,26s-4.93,24,4.16,17.9S44.16,10.76,29.06,26Z"/><ellipse class="cls-3" cx="326.82" cy="36.12" rx="49.4" ry="10.14"/><circle class="cls-3" cx="382.63" cy="36.12" r="6.42"/><circle class="cls-3" cx="271.07" cy="36.12" r="6.42"/><path class="cls-3" d="M283.74,80.2h-5.91a7.35,7.35,0,0,1-7.33-7.86l3-42.06a7.35,7.35,0,0,1,7.33-6.83h0a7.35,7.35,0,0,1,7.32,6.83l3,42.06A7.35,7.35,0,0,1,283.74,80.2Z"/><path class="cls-3" d="M375.8,80.2h-5.91a7.35,7.35,0,0,1-7.33-7.86l3-42.06a7.35,7.35,0,0,1,7.33-6.83h0a7.35,7.35,0,0,1,7.32,6.83l3,42.06A7.35,7.35,0,0,1,375.8,80.2Z"/><path class="cls-5" d="M158.54,177c-2.59,1.13-4.17,2-4.17,2l2-2.52-.74-.18c-7.73,5.23-36.11,22.83-57.7,15.22-20-7.07-55-20.45-40.54-59.66,0,0-21,35.22,7.87,54.36s52.28,15.61,70.53,9.92S166.37,178,180.55,183s17.77,11.08,17.77,11.08a56.78,56.78,0,0,0-3.91-9.48Q176,181.28,158.54,177Z"/><polygon class="cls-6" points="725.61 245.19 725.61 245.19 725.61 245.19 725.61 245.19"/><path class="cls-6" d="M725.61,245.19h0c0-42.47-53.46-47.42-65.62-51.71-2.76-1-9.17-3.61-10.26-6.32a3.65,3.65,0,0,1-.18-1.25h0c0-5.13.78-10.2,15.55-10.2,12.9,0,20.39,5.25,27.37,8.23a18.4,18.4,0,0,0,7.59,2l.73,0h0A18.48,18.48,0,0,0,709.3,151h0a135,135,0,0,0-17.38-7.63c-38.33-13.37-79.33,1.78-79.33,42.19h0c0,.09,0,.18,0,.27V186c0,.07,0,.13,0,.2.19,27,22.7,40,49.16,46,5.9,1.24,24.56,5.59,26.68,11.32a5.08,5.08,0,0,1,.21,1.63c0,8.17-9.65,10.18-17.83,10.18-13.71,0-23.68-4.71-34-11.48l-.08.12a18.48,18.48,0,1,0-18,32.21c16.12,10.18,32.16,16.1,52,16.1,34.56,0,54.78-21.24,54.79-47.11v0Z"/><path class="cls-6" d="M919.48,138.51a68.23,68.23,0,0,0-49.08,20.62h0a67.76,67.76,0,0,0-48.92-20.62,68.6,68.6,0,0,0-33.3,8.55h0a18.48,18.48,0,0,0-34.32,9.52V270.69a18.48,18.48,0,0,0,37,0V204.56c.07-32.88,49.52-40.65,59.72-8.53a28,28,0,0,1,1.32,8.57h0v66.13h0a18.48,18.48,0,0,0,37,0h0V204.6h0v0c.06-32.84,49.5-40.73,59.73-8.54a28.18,28.18,0,0,1,1.31,8.55v66.15h0a18.48,18.48,0,0,0,37,0h0V204.6h0C986.83,168.15,956.85,138.51,919.48,138.51Z"/><path class="cls-6" d="M1172.15,216.65a75.89,75.89,0,0,0-6.23-30.2,77.85,77.85,0,0,0-28.53-33.94,78.85,78.85,0,0,0-20.53-9.66,79.81,79.81,0,0,0-23.23-3.44h0a79.65,79.65,0,0,0-30.45,6,78.52,78.52,0,0,0-34.56,27.87,76.1,76.1,0,0,0-13.53,43.36h0c0,42.54,35.07,77.25,78.53,77.25h0c43.31,0,78.49-34.54,78.53-77.17v-.08Zm-37,0c0,22.42-18.76,40.29-41.57,40.29-23,0-41.56-18.08-41.58-40.27v0a39,39,0,0,1,3.2-15.53,40.82,40.82,0,0,1,15-17.77,41.65,41.65,0,0,1,10.91-5.13,43.13,43.13,0,0,1,28.79,1.37,41.5,41.5,0,0,1,18.28,14.72,39.24,39.24,0,0,1,7,22.36h0Q1135.2,226.23,1135.19,216.66Z"/><path class="cls-6" d="M1308.33,184.43h0A18.48,18.48,0,1,0,1333,157h0c-50.26-45.19-132.59-10.68-132.58,57.1a76,76,0,0,0,6.3,30.33,78.06,78.06,0,0,0,28.76,34,79.23,79.23,0,0,0,20.66,9.67,80.45,80.45,0,0,0,23.38,3.45h0a80.61,80.61,0,0,0,28.47-5.17A79.5,79.5,0,0,0,1332,272.1l0,0a18.47,18.47,0,1,0-24.71-27.46,42.47,42.47,0,0,1-12.26,7.18,43.88,43.88,0,0,1-32-.46,42,42,0,0,1-18.52-14.82,39.55,39.55,0,0,1-5.21-10.54,39,39,0,0,1-1.85-11.92C1237.44,178.44,1281.63,160.43,1308.33,184.43Z"/><path class="cls-6" d="M1494.85,258.22l-48.49-53.09L1485.1,171h0a18.48,18.48,0,1,0-24.42-27.74h0L1408,189.69l-.06.05-.15.14-.19.16h0l-3.16,2.78V102.92a18.48,18.48,0,1,0-37,0h0V270.57h0v.12a18.48,18.48,0,0,0,37,0v-.12h0V242.06l14.22-12.51h0l49,53.6h0a18.48,18.48,0,1,0,27.29-24.92Z"/><path class="cls-6" d="M1602.25,138.42h-.1c-40.48,0-74.13,34.65-74.12,77.2h0a84.67,84.67,0,0,0,5,29.23,73.68,73.68,0,0,0,10.56,19.34,70,70,0,0,0,11.71,12,72.57,72.57,0,0,0,22.87,12.36,87.88,87.88,0,0,0,27.66,4.25h0a78.08,78.08,0,0,0,28.15-5.43,80.38,80.38,0,0,0,23.79-14.34l.42-.36.23-.2h0A18.48,18.48,0,1,0,1633.81,245h0a43.34,43.34,0,0,1-13.16,8,41.53,41.53,0,0,1-14.7,2.91h-.06a48.86,48.86,0,0,1-18.49-3.27,34.74,34.74,0,0,1-9.56-5.73,34.28,34.28,0,0,1-9.37-13,46.89,46.89,0,0,1-3.47-18.27c0-22.35,17.27-40.24,37.19-40.24,16.38,0,28.51,8.41,34.39,21.76h-41.72a18.48,18.48,0,0,0,0,37h63.92a18.48,18.48,0,0,0,18.48-18.48h0C1677.25,172.55,1646.12,138.42,1602.25,138.42Z"/><path class="cls-6" d="M1802.32,147c-27.15-9.55-48.24-7.68-63.7.48h0a18.47,18.47,0,0,0-33,11.37v112.1h0s0,.07,0,.11a18.48,18.48,0,0,0,37,0v-.11h0v-64c0-5,2.64-24,17-28.37,9.38-2.84,21.67.14,31,3.46h0l.08,0h0a18.48,18.48,0,1,0,11.74-35Z"/><path class="cls-7" d="M894,388.33,888.65,394q-6.82-6.57-13.22-6.58a10.1,10.1,0,0,0-7.06,2.69,8.44,8.44,0,0,0-2.93,6.41,9.16,9.16,0,0,0,2.45,6q2.4,3,10.11,7,9.45,4.86,12.8,9.4a17.32,17.32,0,0,1,3.29,10.34,18.41,18.41,0,0,1-5.65,13.61,19.29,19.29,0,0,1-14.15,5.59A25.23,25.23,0,0,1,863.44,446a22.71,22.71,0,0,1-8.53-6.79l5.33-6q6.45,7.31,13.7,7.3a12.26,12.26,0,0,0,8.58-3.26,10.06,10.06,0,0,0,3.56-7.63,9.87,9.87,0,0,0-2.33-6.46q-2.34-2.81-10.59-7.05-8.91-4.5-12.08-9a16.76,16.76,0,0,1-3.23-10.17A16.52,16.52,0,0,1,863,384.41a17.74,17.74,0,0,1,12.83-4.93Q884.82,379.48,894,388.33Z"/><path class="cls-7" d="M964.14,425l7.05,3.77a36.83,36.83,0,0,1-8,11.06,32.27,32.27,0,0,1-10.35,6.37,36.2,36.2,0,0,1-13,2.18q-16,0-25.06-10.49a35.91,35.91,0,0,1-1.38-46q9.69-12.44,26-12.44,16.7,0,26.74,12.74,7.13,9,7.18,22.37H914.43q.24,11.49,7.3,18.81a23.19,23.19,0,0,0,17.4,7.33,27.57,27.57,0,0,0,9.75-1.77,26.07,26.07,0,0,0,8-4.63A39.9,39.9,0,0,0,964.14,425Zm0-17.65a27.77,27.77,0,0,0-4.91-10.79,23.31,23.31,0,0,0-8.55-6.53,26.25,26.25,0,0,0-11.19-2.48,24,24,0,0,0-16.57,6.22q-5,4.56-7.59,13.58Z"/><path class="cls-7" d="M985.85,418.3v-7.9a35.35,35.35,0,0,1,2.75-9.63q4.18-10.29,11.25-15.07t11.72-4.79a15,15,0,0,1,7.42,2.28l-4.37,7.05q-5.57-2-11,3.29A29,29,0,0,0,996,405.14q-1.56,5.57-1.56,20.87V448.2h-8.61Z"/><path class="cls-7" d="M1019.94,382.83h9l21.95,47.73,21.77-47.73h9l-30,65.61h-1.5Z"/><path class="cls-7" d="M1149.74,425l7.06,3.77a36.83,36.83,0,0,1-8,11.06,32.38,32.38,0,0,1-10.35,6.37,36.24,36.24,0,0,1-13,2.18q-16,0-25.06-10.49a35.88,35.88,0,0,1-1.38-46q9.69-12.44,26-12.44,16.7,0,26.74,12.74,7.11,9,7.17,22.37H1100q.24,11.49,7.29,18.81a23.21,23.21,0,0,0,17.41,7.33,27.57,27.57,0,0,0,9.75-1.77,26.19,26.19,0,0,0,8-4.63A39.64,39.64,0,0,0,1149.74,425Zm0-17.65a27.77,27.77,0,0,0-4.9-10.79,23.34,23.34,0,0,0-8.56-6.53,26.17,26.17,0,0,0-11.18-2.48,24,24,0,0,0-16.57,6.22q-5,4.56-7.6,13.58Z"/><path class="cls-7" d="M1171.46,418.3v-7.9a35,35,0,0,1,2.75-9.63q4.18-10.29,11.24-15.07t11.73-4.79a14.93,14.93,0,0,1,7.41,2.28l-4.36,7.05q-5.57-2-11,3.29a29,29,0,0,0-7.57,11.61q-1.55,5.57-1.55,20.87V448.2h-8.61Z"/><path class="cls-7" d="M1242.34,422.9V412.44q1.07-13.41,5.62-19.62a27.59,27.59,0,0,1,9.87-9q4-2.56,11.42-2.75a28,28,0,0,1,9.69,1.8,18.6,18.6,0,0,1,7.6,4.78,36.6,36.6,0,0,1,5.44,9q1.5-3.82,6.28-9a32.59,32.59,0,0,1,6-3.88q2.52-1.62,11.67-2.7a27.16,27.16,0,0,1,13.1,3.41,19,19,0,0,1,8.82,9.6q2.53,6.19,2.54,18.46v35.83h-8.61V412.5q0-10.53-1.5-14.48a13.05,13.05,0,0,0-5.14-6.37,15.48,15.48,0,0,0-8.79-2.42q-9.69.66-16.57,9.39-2.7,3.7-4.07,16.45v33.26h-8.43V414.71q0-11.85-2.64-16.12a22.37,22.37,0,0,0-6.28-6.82,15.54,15.54,0,0,0-9.09-2.54,16.94,16.94,0,0,0-10.08,3,19.5,19.5,0,0,0-6.61,8.94q-2.38,6-1.91,19.35v27.82h-8.37Z"/><path class="cls-7" d="M1389.12,379.48a32.6,32.6,0,0,1,25.13,10.94,34.37,34.37,0,0,1,9,23.75,34,34,0,0,1-9.57,24q-9.57,10.26-24.59,10.25t-24.61-10.25a35.22,35.22,0,0,1-.51-47.65A32.5,32.5,0,0,1,1389.12,379.48Zm0,8.25a24.2,24.2,0,0,0-18,7.78,26,26,0,0,0-7.54,18.78A27,27,0,0,0,1367,427.6a24,24,0,0,0,9.3,9.51,26.51,26.51,0,0,0,25.69,0,23.91,23.91,0,0,0,9.24-9.51,27.08,27.08,0,0,0,3.41-13.31,26,26,0,0,0-7.53-18.78A24.24,24.24,0,0,0,1389.12,387.73Z"/><path class="cls-7" d="M1502.47,394.79l-6.7,4.19q-8.67-11.61-23.68-11.61-12,0-19.95,7.72a25.19,25.19,0,0,0-7.93,18.78,26.86,26.86,0,0,0,3.65,13.55,25.27,25.27,0,0,0,10,9.84,29.2,29.2,0,0,0,14.24,3.47,28.89,28.89,0,0,0,23.68-11.49l6.7,4.37a31.4,31.4,0,0,1-12.65,10.92,40.82,40.82,0,0,1-18.09,3.85q-15.49,0-25.75-9.86a32,32,0,0,1-10.26-24,34.59,34.59,0,0,1,18-30.48,38.4,38.4,0,0,1,18.76-4.57,40.48,40.48,0,0,1,12.53,2,34.94,34.94,0,0,1,10.31,5.18A27.46,27.46,0,0,1,1502.47,394.79Z"/><path class="cls-7" d="M1518.5,357.35h8.5v51.8l30.32-26.44h12.44l-27.45,24.94,29.55,40.68h-12L1534.05,413l-7,5.81v29.49h-8.5Z"/></g></g></svg>