<svg xmlns="http://www.w3.org/2000/svg" viewBox="0 0 840.31 800.5"><defs><style>.cls-1{fill:#353535;}.cls-2{fill:#b51629;}.cls-3{fill:#161616;}.cls-4{fill:#efefef;}.cls-5{fill:#c4c4c4;}.cls-6{fill:#8a141d;}.cls-7{fill:#575756;}</style></defs><title>Ativo 1</title><g id="Camada_2" data-name="Camada 2"><g id="Camada_2-2" data-name="Camada 2"><ellipse class="cls-1" cx="419.27" cy="217.05" rx="167.71" ry="53.62"/><path class="cls-2" d="M536.32,389.33C576.59,352,602.22,305.8,602.22,243c0-7.62-1.07-25.81-1.07-27.46,0-35.84-81.43-64.88-181.88-64.88s-181.87,29-181.87,64.88c0,1.65-1.69,19.84-1.69,27.46,0,64.67,27.14,112.29,69.45,149.59L265.09,495.84a7.23,7.23,0,0,0,3.7,9.38h0a7.21,7.21,0,0,0,9.47-3.44l45.81-94.6c27.68,18.65,60.16,29.39,94.89,29.39,4,0,7.89-.16,11.78-.43l3.45,89.8a7.22,7.22,0,0,0,14.44-.16l1.48-92.15a171.69,171.69,0,0,0,66.7-28.49l47,107.33a7.22,7.22,0,0,0,9.34,3.79h0a7.22,7.22,0,0,0,4.05-9.23ZM413.63,292.58c-61.05,0-114.47-10.43-143.8-26C317.69,281.82,379.55,291,447.12,291q3.61,0,7.22,0C441.31,292,427.67,292.58,413.63,292.58Zm5.64-21.92c-92.62,0-167.71-24-167.71-53.61s75.09-53.62,167.71-53.62S587,187.43,587,217.05,511.9,270.66,419.27,270.66Z"/><path class="cls-3" d="M413.63,292.58c14,0,27.68-.56,40.71-1.6q-3.6,0-7.22,0c-67.57,0-129.43-9.2-177.29-24.46C299.16,282.15,352.58,292.58,413.63,292.58Z"/><path class="cls-3" d="M478.18,166.83l49.66,91q8.29-2.26,15.61-4.85L498,169.71Q488.44,168.08,478.18,166.83Z"/><path class="cls-3" d="M532.18,177.46,567.42,242A57,57,0,0,0,580.18,232l-25.31-46.38A185.34,185.34,0,0,0,532.18,177.46Z"/><path class="cls-3" d="M428.12,163.43l56.22,103q8.67-1.17,16.81-2.65l-54.4-99.69Q437.59,163.61,428.12,163.43Z"/><path class="cls-3" d="M337.29,170l54.63,100.1q9.15.46,18.59.6L354.15,167.38Q345.47,168.54,337.29,170Z"/><path class="cls-3" d="M259.75,200.85l26.57,48.68a196.8,196.8,0,0,0,22.46,7.71l-36-66.06A62.24,62.24,0,0,0,259.75,200.85Z"/><path class="cls-3" d="M294.86,180.53l45.93,84.16q9.56,1.59,19.78,2.78l-50-91.68C305,177.26,299.76,178.85,294.86,180.53Z"/><path class="cls-3" d="M382.55,164.56l57.69,105.71q9-.37,17.69-1L400.31,163.65Q391.28,164,382.55,164.56Z"/><path class="cls-2" d="M597.07,143.33c-39-51.07-103-83.66-174.66-83.66l-3.45,0-3.44,0c-71.67,0-135.64,32.59-174.66,83.66-21.35,27.95-1.08,28.88,6.8,30.87,49.35,12.44,106.6,19.56,167.67,19.56l3.63,0,3.64,0c61.07,0,118.32-7.12,167.67-19.56C598.15,172.21,618.42,171.28,597.07,143.33Z"/><path class="cls-4" d="M346.15,229.76c-16.68-6.65,0-23,7.1-39.06a.36.36,0,0,0,0-.09A652.78,652.78,0,0,1,247,173.52c-1.55-.4-3.59-.75-5.69-1.27-38.47,10.17-67-22.87-63.74-39.66,3.83-19.48,46.28-2.43,77.1-2s42.07-29.67,54.1-50.91-15-22.9-13.94-28.44S289.76,29.05,279.48,27s-9.71,6.52-9.71,6.52-5.57-16-17.89-13.35-7.43,9.22-18.43,16.61c-7.4,5-17.44-5.7-21.26-14.54,0,0-14.69-32.34-41.6-19.07-4,3-7.38,6-9.31,9.13-7.74,12.72-7.78,22.45-7.78,22.45S148.36,30.4,137.87,40s11.15,32.91,28,39.41S184.47,69.71,185.55,69c7.3-4.9,16.29,0,16.29,0s0,7.5,12.65,8.1A27.69,27.69,0,0,0,235,69s-1.92,7.87,7.25,12.67,24-3,21.16,11.46-42.24,11.93-63,7.86-47.91-12.59-66.68,0-7.67,32.4-16.89,35.46-12.35,14.24-10.14,25.91,18.12,7.87,18.12,7.87-2,16.08,3,23.63,10.62,6,10.62,6c3.43,10.23,21,3.1,21,3.1,15.19,15.63,65.09.42,68.79,5.93s16.13,5.13,23.75-9.39,16.53-4,16.53-4,12.44,31.09,38.75,8.73,16.24,6,14.64,14.11-3.3,29.71,15.92,33.48,43.35-29.14,43.35-29.14S362.82,236.4,346.15,229.76Z"/><path class="cls-5" d="M134.31,121.72s-2.63-6,6.76-12.32c4.58-3.08,42.9-2.42,33.83-3.47C174.9,105.93,140,114.85,134.31,121.72Z"/><path class="cls-4" d="M92.37,121.06a7.15,7.15,0,0,0,2.35,3.27,9.17,9.17,0,0,0,8.09,1.53c4.41-1.15,22.69-19.75,14.47-21.37C110.73,103.21,89.77,112.62,92.37,121.06Z"/><path class="cls-4" d="M121.21,26s-4.94,24,4.16,17.9S136.31,10.76,121.21,26Z"/><ellipse class="cls-3" cx="418.96" cy="36.12" rx="49.4" ry="10.14"/><circle class="cls-3" cx="474.78" cy="36.12" r="6.42"/><circle class="cls-3" cx="363.22" cy="36.12" r="6.42"/><path class="cls-3" d="M375.89,80.2H370a7.35,7.35,0,0,1-7.33-7.86l3-42.06a7.35,7.35,0,0,1,7.32-6.83h0a7.35,7.35,0,0,1,7.33,6.83l3,42.06A7.35,7.35,0,0,1,375.89,80.2Z"/><path class="cls-3" d="M468,80.2H462a7.35,7.35,0,0,1-7.33-7.86l3-42.06A7.35,7.35,0,0,1,465,23.45h0a7.35,7.35,0,0,1,7.33,6.83l3,42.06A7.35,7.35,0,0,1,468,80.2Z"/><path class="cls-5" d="M250.69,177c-2.59,1.13-4.17,2-4.17,2l2-2.52-.74-.18c-7.73,5.23-36.11,22.83-57.7,15.22-20.05-7.07-55-20.45-40.54-59.66,0,0-21,35.22,7.87,54.36s52.28,15.61,70.53,9.92S258.52,178,272.7,183s17.77,11.08,17.77,11.08a56.78,56.78,0,0,0-3.91-9.48Q268.14,181.28,250.69,177Z"/><polygon class="cls-6" points="81.72 659 81.72 659 81.72 659 81.72 659"/><path class="cls-6" d="M81.72,659h0c0-29.56-37.22-33-45.68-36-1.92-.67-6.38-2.51-7.14-4.4a2.55,2.55,0,0,1-.13-.87h0c0-3.57.55-7.1,10.83-7.1,9,0,14.19,3.66,19,5.73a12.87,12.87,0,0,0,5.28,1.37h.53a12.87,12.87,0,0,0,5.91-24.29h0a95.89,95.89,0,0,0-12.1-5.31C31.59,578.84,3,589.39,3,617.52h0c0,.07,0,.13,0,.19v.11a.71.71,0,0,1,0,.14c.13,18.76,15.8,27.84,34.22,32,4.11.87,17.1,3.89,18.57,7.88A3.25,3.25,0,0,1,56,659c0,5.7-6.71,7.09-12.41,7.09-9.54,0-16.48-3.28-23.66-8l-.06.09a12.86,12.86,0,1,0-12.5,22.42c11.22,7.08,22.39,11.21,36.22,11.21,24.06,0,38.13-14.79,38.14-32.8v0Z"/><path class="cls-6" d="M216.68,584.74a47.49,47.49,0,0,0-34.16,14.35h0a47.77,47.77,0,0,0-57.24-8.39h0a12.86,12.86,0,0,0-23.89,6.62v79.43a12.87,12.87,0,1,0,25.73,0v-46c0-22.89,34.47-28.29,41.57-5.93a19.37,19.37,0,0,1,.92,6h0v46h0a12.87,12.87,0,0,0,25.73,0h0v-46h0v0c0-22.87,34.45-28.36,41.57-5.94a19.33,19.33,0,0,1,.92,5.94v46.06h0a12.87,12.87,0,0,0,25.73,0h0v-46h0C263.57,605.38,242.69,584.74,216.68,584.74Z"/><path class="cls-6" d="M392.58,639.14a52.86,52.86,0,0,0-4.35-21,54.06,54.06,0,0,0-19.86-23.62,54.92,54.92,0,0,0-14.29-6.73,55.5,55.5,0,0,0-16.17-2.39h0a55.46,55.46,0,0,0-21.19,4.19A54.59,54.59,0,0,0,292.65,609a53.07,53.07,0,0,0-9.42,30.18h0c0,29.62,24.41,53.78,54.67,53.78h0c30.15,0,54.65-24,54.68-53.72v-.06Zm-25.73,0c0,15.61-13.06,28.05-29,28.05S309,654.61,309,639.16v0h0a27,27,0,0,1,2.23-10.81A28.38,28.38,0,0,1,321.62,616a29.24,29.24,0,0,1,7.6-3.57,30.06,30.06,0,0,1,20,1A29,29,0,0,1,362,623.58a27.77,27.77,0,0,1,3.58,7.29,27.16,27.16,0,0,1,1.28,8.27Z"/><path class="cls-6" d="M487.37,616.71h0a12.86,12.86,0,1,0,17.2-19.13h0c-35-31.46-92.31-7.44-92.3,39.75a52.89,52.89,0,0,0,4.39,21.11,54.27,54.27,0,0,0,20,23.7,55.17,55.17,0,0,0,14.38,6.73,56.23,56.23,0,0,0,16.27,2.4h0a56,56,0,0,0,19.81-3.6,55.25,55.25,0,0,0,16.67-9.93l0,0a12.86,12.86,0,1,0-17.2-19.12,29.65,29.65,0,0,1-8.54,5,30.56,30.56,0,0,1-22.25-.32A29.29,29.29,0,0,1,442.92,653a27.52,27.52,0,0,1-3.62-7.33,27,27,0,0,1-1.29-8.3C438,612.54,468.79,600,487.37,616.71Z"/><path class="cls-6" d="M617.22,668.08l-33.76-37,27-23.74h0a12.86,12.86,0,1,0-17-19.31h0l-36.7,32.3,0,0-.11.09-.13.12h0l-2.2,1.94V560a12.87,12.87,0,1,0-25.73,0h0v91.16h0v25.54h0v.07a12.87,12.87,0,1,0,25.73,0v-.07h0V656.83l9.89-8.71h0l34.08,37.31h0a12.86,12.86,0,0,0,19-17.35Z"/><path class="cls-6" d="M692,584.68h-.06c-28.19,0-51.61,24.12-51.61,53.74h0a59,59,0,0,0,3.51,20.35,51.11,51.11,0,0,0,7.35,13.46,48.5,48.5,0,0,0,8.15,8.37,50.36,50.36,0,0,0,15.92,8.6,61,61,0,0,0,19.25,3h0a54.43,54.43,0,0,0,19.6-3.77,56.22,56.22,0,0,0,16.56-10l.29-.25.16-.14h0A12.86,12.86,0,1,0,714,658.86h0a30.23,30.23,0,0,1-9.17,5.56,28.86,28.86,0,0,1-10.23,2h0a34.37,34.37,0,0,1-12.87-2.28,23.47,23.47,0,0,1-13.18-13A32.63,32.63,0,0,1,666,638.42c0-15.56,12-28,25.89-28,11.4,0,19.85,5.86,23.94,15.15h-29a12.86,12.86,0,1,0,0,25.72h44.5a12.85,12.85,0,0,0,12.86-12.86h0C744.19,608.44,722.52,584.68,692,584.68Z"/><path class="cls-6" d="M831.26,590.64c-18.9-6.65-33.58-5.34-44.34.34h0a12.86,12.86,0,0,0-23,7.91v78h0V677a12.87,12.87,0,0,0,25.73,0v-.08h0V632.36c0-3.46,1.83-16.68,11.83-19.75,6.54-2,15.09.1,21.56,2.41h0l.06,0h0a12.87,12.87,0,1,0,8.17-24.4Z"/><path class="cls-7" d="M199,758.65l-3.75,3.92Q190.47,758,186,758a7,7,0,0,0-4.92,1.87,5.84,5.84,0,0,0-2,4.45,6.34,6.34,0,0,0,1.71,4.17c1.11,1.41,3.46,3,7,4.87q6.57,3.38,8.91,6.54a12.15,12.15,0,0,1,2.29,7.2,12.79,12.79,0,0,1-3.94,9.47,13.4,13.4,0,0,1-9.84,3.9,17.53,17.53,0,0,1-7.56-1.69,15.79,15.79,0,0,1-5.94-4.73l3.71-4.2q4.5,5.08,9.54,5.08a8.53,8.53,0,0,0,6-2.27,7,7,0,0,0,2.48-5.31,6.83,6.83,0,0,0-1.63-4.5q-1.62-2-7.37-4.91-6.19-3.12-8.41-6.29a11.67,11.67,0,0,1-2.24-7.08,11.51,11.51,0,0,1,3.55-8.64,12.38,12.38,0,0,1,8.94-3.43Q192.56,752.49,199,758.65Z"/><path class="cls-7" d="M247.77,784.18l4.91,2.62a25.54,25.54,0,0,1-5.58,7.7,22.6,22.6,0,0,1-7.2,4.44,25.39,25.39,0,0,1-9,1.52q-11.16,0-17.44-7.31a24.61,24.61,0,0,1-6.29-16.51,24.36,24.36,0,0,1,5.33-15.49q6.73-8.65,18.11-8.66a22.51,22.51,0,0,1,18.61,8.87q5,6.24,5,15.57h-41a18.68,18.68,0,0,0,5.08,13.1,16.14,16.14,0,0,0,12.11,5.1,19.2,19.2,0,0,0,6.79-1.23,18.29,18.29,0,0,0,5.6-3.23A27.62,27.62,0,0,0,247.77,784.18Zm0-12.29a19.39,19.39,0,0,0-3.42-7.51,16.1,16.1,0,0,0-5.95-4.54,18.26,18.26,0,0,0-7.79-1.73,16.67,16.67,0,0,0-11.53,4.33q-3.5,3.16-5.29,9.45Z"/><path class="cls-7" d="M262.88,779.51V774a24.93,24.93,0,0,1,1.92-6.71q2.91-7.15,7.83-10.49t8.16-3.33a10.46,10.46,0,0,1,5.16,1.58l-3,4.91q-3.87-1.41-7.68,2.29a20.21,20.21,0,0,0-5.27,8.08q-1.08,3.87-1.08,14.53v15.45h-6Z"/><path class="cls-7" d="M286.62,754.82h6.24l15.29,33.23,15.15-33.23h6.29l-20.9,45.68h-1Z"/><path class="cls-7" d="M377,784.18l4.91,2.62a25.54,25.54,0,0,1-5.58,7.7,22.6,22.6,0,0,1-7.2,4.44,25.39,25.39,0,0,1-9,1.52q-11.16,0-17.45-7.31a25,25,0,0,1-1-32q6.75-8.65,18.12-8.66a22.52,22.52,0,0,1,18.61,8.87q5,6.24,5,15.57h-41a18.72,18.72,0,0,0,5.08,13.1,16.18,16.18,0,0,0,12.12,5.1,19.28,19.28,0,0,0,6.79-1.23,18.29,18.29,0,0,0,5.6-3.23A27.62,27.62,0,0,0,377,784.18Zm0-12.29a19.39,19.39,0,0,0-3.42-7.51,16.18,16.18,0,0,0-5.95-4.54,18.26,18.26,0,0,0-7.79-1.73,16.67,16.67,0,0,0-11.53,4.33q-3.51,3.16-5.29,9.45Z"/><path class="cls-7" d="M392.09,779.51V774a24.22,24.22,0,0,1,1.92-6.71q2.91-7.15,7.82-10.49t8.16-3.33a10.46,10.46,0,0,1,5.17,1.58l-3,4.91q-3.87-1.41-7.68,2.29a20.21,20.21,0,0,0-5.27,8.08q-1.08,3.87-1.08,14.53v15.45h-6Z"/><path class="cls-7" d="M441.43,782.72v-7.29q.75-9.33,3.92-13.66a19.21,19.21,0,0,1,6.87-6.28q2.79-1.8,7.95-1.92a19.65,19.65,0,0,1,6.75,1.25,12.9,12.9,0,0,1,5.28,3.33A25.06,25.06,0,0,1,476,764.4a21.29,21.29,0,0,1,4.38-6.25,22.31,22.31,0,0,1,4.2-2.7c1.17-.75,3.87-1.38,8.12-1.88a18.86,18.86,0,0,1,9.12,2.37,13.2,13.2,0,0,1,6.14,6.69q1.77,4.3,1.77,12.84v24.95h-6V775.47q0-7.32-1.05-10.07A9,9,0,0,0,499.1,761a10.83,10.83,0,0,0-6.12-1.68q-6.74.45-11.53,6.53-1.87,2.58-2.83,11.45v23.16h-5.88V777q0-8.24-1.83-11.22a15.76,15.76,0,0,0-4.37-4.74,10.79,10.79,0,0,0-6.33-1.77,11.76,11.76,0,0,0-7,2.08,13.57,13.57,0,0,0-4.61,6.22c-1.11,2.77-1.55,7.25-1.33,13.47v19.37h-5.83Z"/><path class="cls-7" d="M543.62,752.49a22.69,22.69,0,0,1,17.49,7.62,24.55,24.55,0,0,1-.38,33.21q-6.66,7.14-17.11,7.14t-17.14-7.14a24.51,24.51,0,0,1-.35-33.17A22.59,22.59,0,0,1,543.62,752.49Zm0,5.74a16.87,16.87,0,0,0-12.54,5.42,18.09,18.09,0,0,0-5.24,13.07,18.75,18.75,0,0,0,2.39,9.27,16.78,16.78,0,0,0,6.48,6.62,18.45,18.45,0,0,0,17.88,0A16.66,16.66,0,0,0,559,786a18.85,18.85,0,0,0,2.38-9.27,18.1,18.1,0,0,0-5.25-13.07A16.86,16.86,0,0,0,543.62,758.23Z"/><path class="cls-7" d="M622.52,763.15l-4.66,2.91A19.49,19.49,0,0,0,601.37,758a19.11,19.11,0,0,0-13.89,5.37A17.58,17.58,0,0,0,582,776.43a18.59,18.59,0,0,0,2.54,9.43,17.61,17.61,0,0,0,7,6.85,21.16,21.16,0,0,0,26.4-5.58l4.66,3a21.9,21.9,0,0,1-8.8,7.6,28.45,28.45,0,0,1-12.6,2.69q-10.79,0-17.92-6.87a22.28,22.28,0,0,1-7.15-16.7,23.85,23.85,0,0,1,3.36-12.35,23.6,23.6,0,0,1,9.16-8.87,26.71,26.71,0,0,1,13-3.18,28.15,28.15,0,0,1,8.72,1.37,24.57,24.57,0,0,1,7.19,3.6A19.28,19.28,0,0,1,622.52,763.15Z"/><path class="cls-7" d="M633.68,737.08h5.92v36.06l21.11-18.4h8.66L650.25,772.1l20.58,28.32H662.5l-18-24.57-4.91,4v20.53h-5.92Z"/></g></g></svg>